# xmcd CD database file
#
# Track frame offsets:
#	150
#	19325
#	41722
#
# Disc length: 836 seconds
#
# Revision: 0
# Processed by: cddbd v1.5.1PL0 Copyright (c) Steve Scherf et al.
# Submitted via: CDex 1.51
#
DISCID=20034203
DTITLE=矢野真紀 - 夢を見ていた金魚
DYEAR=2000
DGENRE=Rock
TTITLE0=夢を見ていた金魚
TTITLE1=愛について
TTITLE2=THE ROSE
EXTD=YEAR: 2000
EXTT0=
EXTT1=
EXTT2=
PLAYORDER=
